<?xml version="1.0" encoding="UTF-8"?>
<svg width="142px" height="153px" viewBox="0 0 142 153" version="1.1" xmlns="http://www.w3.org/2000/svg" xmlns:xlink="http://www.w3.org/1999/xlink">
    <!-- Generator: Sketch 52.4 (67378) - http://www.bohemiancoding.com/sketch -->
    <title>Group 33</title>
    <desc>Created with Sketch.</desc>
    <g id="Page-1" stroke="none" stroke-width="1" fill="none" fill-rule="evenodd" stroke-linecap="round">
        <g id="Home" transform="translate(-650.000000, -265.000000)" stroke="#1D5467" stroke-width="4">
            <g id="Group-33" transform="translate(652.000000, 267.000000)">
                <path d="M27.7733,9.3195 C9.5273,27.4485 1.4613,53.4015 0.1713,73.7245 C-0.1007,78.0125 -0.2477,87.0495 1.3273,97.6495" id="Stroke-1"></path>
                <path d="M111.7284,85.881 C113.7114,108.196 99.0824,148.55 60.3534,148.55 C15.9214,148.55 7.0274,102.624 8.8824,73.549 C10.5044,48.144 23.9874,12.828 57.7634,0.943" id="Stroke-3"></path>
                <path d="M45.6962,137.4767 C17.9172,126.2297 18.7612,83.7147 19.3892,73.4157 C21.0682,45.8467 37.6482,5.3817 81.7572,4.0497 C93.7592,3.6877 103.7062,7.3497 111.7032,12.5407" id="Stroke-5"></path>
                <path d="M54.5399,77.2345 C54.5399,77.2345 52.3039,98.3105 61.0799,97.9275 C72.3369,97.4375 54.7179,49.9635 81.1199,47.5285 C96.6879,46.0915 107.0779,68.3235 103.2489,98.9565 C99.9429,125.4015 79.2379,139.4965 61.9279,140.2055 C59.7949,140.2515 57.7669,140.1655 55.8379,139.9585" id="Stroke-7"></path>
                <path d="M37.3153,90.8937 C36.0213,80.4727 36.8693,69.2027 38.4353,60.4077 C42.4023,38.1297 60.0523,22.5847 83.3443,22.5847 C104.6473,22.5847 132.8253,49.8627 126.9063,100.3797 C125.7273,110.4417 123.1643,120.3227 119.1763,129.2557" id="Stroke-9"></path>
                <path d="M83.6356,66.2228 C83.6356,66.2228 91.8746,120.8498 63.4936,120.8498 C49.7886,120.8498 42.5516,111.9508 39.1786,100.2388" id="Stroke-11"></path>
                <path d="M132.1884,54.1368 C137.5394,69.2318 139.2774,88.6918 134.6224,112.7588" id="Stroke-13"></path>
                <path d="M78.6493,14.0021 C80.3363,13.8241 82.0643,13.6981 83.8303,13.6221 C99.3903,13.6221 119.0643,24.6771 129.6823,47.9341" id="Stroke-15"></path>
                <path d="M32.3456,50.0851 C38.8126,30.8251 52.1126,19.1371 71.4366,15.1171" id="Stroke-17"></path>
                <path d="M83.0839,122.0304 C77.7369,128.0704 70.7299,131.3924 62.5829,131.4264 C43.2439,131.5034 25.0059,119.0574 28.1249,72.7484 C28.4099,68.5204 28.9069,64.5174 29.6109,60.7404" id="Stroke-19"></path>
                <path d="M94.2274,79.7394 C94.9814,94.4634 92.5094,106.6924 87.6124,115.5534" id="Stroke-21"></path>
                <path d="M88.6503,31.9366 C104.1593,35.2156 118.5393,53.3256 119.9103,80.5846 C121.2243,106.7066 110.1193,140.2166 87.6123,148.5496" id="Stroke-23"></path>
                <path d="M61.0683,110.0509 C48.7553,110.0509 43.6073,93.3669 45.3973,71.8279 C47.0763,51.6349 58.9273,33.6199 78.0013,31.4559" id="Stroke-25"></path>
                <path d="M64.9442,109.7218 C64.9442,109.7218 81.1512,106.3478 76.1692,68.8948 C76.1692,68.8948 74.4612,57.2588 82.7382,56.0578 C91.0152,54.8568 93.1512,72.1148 93.1512,72.1148" id="Stroke-27"></path>
                <path d="M100.6669,49.2765 C90.1549,34.1115 74.0809,41.3495 74.0809,41.3495 C56.3789,48.0705 55.6649,70.2445 55.6649,70.2445" id="Stroke-29"></path>
                <path d="M103.5722,53.3253 C103.5722,53.3253 110.8082,62.6273 111.6992,80.8553" id="Stroke-31"></path>
            </g>
        </g>
    </g>
</svg>